<svg xmlns="http://www.w3.org/2000/svg" viewBox="0 0 32 32" width="32" height="32">
  <style>
    .bg { fill: oklch(48% 0.13 192); }
    .fg { fill: #ffffff; }
    @media (prefers-color-scheme: dark) {
      .bg { fill: oklch(78% 0.13 192); }
      .fg { fill: oklch(14% 0.015 193); }
    }
  </style>
  <rect class="bg" width="32" height="32" rx="8"/>
  <path class="fg" d="M3.868 24.680L3.868 24.680L3.688 20.868Q3.971 20.920 4.267 20.945Q4.564 20.971 4.744 20.971L4.744 20.971Q5.723 20.971 6.251 20.701Q6.779 20.430 6.998 19.838Q7.217 19.245 7.217 18.241L7.217 18.241L7.217 7.500L11.389 7.500L11.389 18.267Q11.389 20.430 10.745 21.873Q10.102 23.315 8.788 24.049Q7.474 24.783 5.439 24.783L5.439 24.783Q5.182 24.783 4.821 24.758Q4.461 24.732 3.868 24.680ZM20.817 24.861L20.817 24.861Q19.168 24.861 17.829 24.552Q16.489 24.242 15.511 23.611Q14.532 22.980 13.965 22.002Q13.398 21.023 13.295 19.735L13.295 19.735L16.927 18.524Q17.005 19.606 17.545 20.327Q18.086 21.048 19.001 21.396Q19.915 21.744 21.048 21.744L21.048 21.744Q22.130 21.744 22.864 21.473Q23.598 21.203 23.972 20.778Q24.345 20.353 24.345 19.864L24.345 19.864Q24.345 19.297 23.856 18.923Q23.367 18.550 22.517 18.280Q21.667 18.009 20.533 17.752L20.533 17.752Q19.245 17.442 18.009 17.082Q16.773 16.721 15.768 16.142Q14.764 15.562 14.184 14.648Q13.605 13.733 13.605 12.342L13.605 12.342Q13.605 10.771 14.403 9.612Q15.202 8.453 16.747 7.796Q18.292 7.139 20.559 7.139L20.559 7.139Q22.800 7.139 24.371 7.783Q25.942 8.427 26.792 9.573Q27.642 10.720 27.720 12.239L27.720 12.239L24.011 13.295Q24.011 12.548 23.766 11.982Q23.521 11.415 23.083 11.042Q22.645 10.668 22.002 10.475Q21.358 10.282 20.533 10.282L20.533 10.282Q19.555 10.282 18.872 10.514Q18.189 10.745 17.855 11.119Q17.520 11.492 17.520 11.982L17.520 11.982Q17.520 12.600 18.048 12.999Q18.576 13.398 19.490 13.669Q20.405 13.939 21.512 14.197L21.512 14.197Q22.620 14.429 23.805 14.777Q24.989 15.124 26.020 15.691Q27.050 16.258 27.681 17.223Q28.312 18.189 28.312 19.658L28.312 19.658Q28.312 21.229 27.475 22.401Q26.638 23.573 24.964 24.217Q23.289 24.861 20.817 24.861Z"/>
</svg>
